<svg xmlns="http://www.w3.org/2000/svg" width="24" height="24" viewBox="0 0 900 900" version="1.1"><path d="M 406 1.120 C 362.693 5.473, 310.136 18.939, 275.220 34.628 C 272.317 35.932, 269.728 37, 269.467 37 C 267.886 37, 238.323 51.938, 227 58.458 C 189.619 79.983, 159.619 103.373, 128 135.644 C 104.098 160.039, 86.723 181.799, 69.213 209.269 C 31.418 268.560, 7.449 338.698, 0.955 409 C -0.712 427.046, 0.228 490.861, 2.384 506 C 6.772 536.807, 13.432 566.277, 21.371 590.007 C 29.933 615.601, 34.652 626.979, 46.668 651 C 69.551 696.745, 95.674 732.930, 131.897 769.057 C 169.538 806.599, 206.107 832.805, 252.500 855.486 C 300.174 878.793, 344.642 891.986, 397.500 898.504 C 414.669 900.622, 486.189 900.601, 503.837 898.474 C 556.355 892.143, 616.528 873.443, 659 850.254 C 684.380 836.397, 699.737 826.754, 718 813.205 C 806.493 747.556, 867.497 653.771, 890.894 547.402 C 898.852 511.225, 900.986 490.590, 900.994 449.768 C 901 416.441, 899.924 402.130, 895.445 376 C 881.732 296.001, 848.406 223.862, 795.892 160.500 C 784.827 147.150, 753.139 115.561, 739.659 104.442 C 668.201 45.502, 587.880 11.427, 497 1.495 C 482.006 -0.144, 421.071 -0.395, 406 1.120 M 417 81.064 C 404.037 82.458, 387.546 84.924, 377 87.047 C 272.317 108.120, 181.700 173.679, 128.265 267 C 107.476 303.307, 93.013 343.312, 85.604 385 C 75.311 442.912, 79.048 504.760, 96.147 559.500 C 123.572 647.293, 181.821 721.545, 259.906 768.245 C 286.398 784.090, 314.551 796.431, 347 806.424 C 360.707 810.645, 384.144 815.451, 403.500 818.010 C 448.677 823.981, 501.378 820.530, 544.500 808.776 C 550.550 807.127, 556.400 805.549, 557.500 805.269 C 561.604 804.226, 582.797 796.647, 591 793.289 C 696.832 749.961, 778.743 657.206, 808.053 547.500 C 823.061 491.325, 824.988 431.783, 813.585 376.500 C 809.805 358.172, 805.707 343.154, 800.625 329 C 793.536 309.258, 790.401 301.970, 781.054 283.500 C 759.985 241.869, 733.171 206.449, 700.265 176.785 C 641.504 123.811, 574.442 92.856, 495.795 82.403 C 481.422 80.493, 430.385 79.626, 417 81.064 M 273.798 273.798 C 252.210 295.385, 252 295.637, 252 299.863 C 252 302.211, 252.497 305.114, 253.104 306.316 C 253.711 307.517, 285.997 340.337, 324.851 379.250 L 395.495 450 325.381 520.250 C 286.819 558.887, 254.533 591.613, 253.634 592.973 C 251.621 596.019, 251.520 602.189, 253.424 605.800 C 254.207 607.285, 263.769 617.351, 274.674 628.170 C 296.047 649.375, 297.823 650.535, 305.185 648.103 C 307.552 647.321, 328.657 626.850, 378.997 576.504 C 417.771 537.727, 449.945 506, 450.495 506 C 451.045 506, 483.479 537.982, 522.572 577.072 C 589.352 643.847, 593.892 648.176, 597.685 648.685 C 600.353 649.042, 602.903 648.666, 605.205 647.573 C 607.121 646.664, 617.493 637.045, 628.254 626.197 C 649.076 605.210, 650.166 603.584, 648.503 596.016 C 647.834 592.968, 629.777 574.462, 528.230 472.751 L 505.518 450.001 576.665 378.751 C 633.657 321.676, 647.946 306.853, 648.486 304.250 C 649.948 297.190, 648.808 295.533, 628.142 274.674 C 617.339 263.769, 607.285 254.207, 605.800 253.424 C 602.189 251.520, 596.019 251.621, 592.973 253.634 C 591.613 254.533, 558.968 286.738, 520.429 325.202 L 450.358 395.137 381.965 326.819 C 344.349 289.243, 311.756 257.042, 309.536 255.260 C 306.212 252.591, 304.627 252.018, 300.548 252.010 L 295.596 252 273.798 273.798 M 0.453 450.500 C 0.453 470.850, 0.586 479.033, 0.749 468.685 C 0.912 458.336, 0.911 441.686, 0.748 431.685 C 0.585 421.683, 0.452 430.150, 0.453 450.500" stroke="none" fill-rule="evenodd"/></svg>