<svg xmlns="http://www.w3.org/2000/svg" width="24" height="24" viewBox="0 0 96 96" version="1.1"><path d="M 2.455 10.455 L 0 12.909 0 40 L 0 67.091 2.455 69.545 C 4.850 71.941, 5.283 72, 20.455 72 L 36 72 36 76 L 36 80 32 80 L 28 80 28 84 L 28 88 44 88 L 60 88 60 84 L 60 80 56 80 L 52 80 52 76 L 52 72 56 72 L 60 72 60 68 L 60 64 34 64 L 8 64 8 40 L 8 16 44 16 L 80 16 80 26 L 80 36 84 36 L 88 36 88 24.455 C 88 13.530, 87.868 12.777, 85.545 10.455 L 83.091 8 44 8 L 4.909 8 2.455 10.455 M 41.632 30.500 L 39.898 36 33.712 36 L 27.527 36 32.712 39.492 L 37.898 42.984 36.003 48.492 C 34.960 51.521, 34.347 54, 34.640 54 C 34.933 54, 37.159 52.574, 39.587 50.830 L 44 47.661 48.413 50.830 C 50.841 52.574, 53.067 54, 53.360 54 C 53.653 54, 53.040 51.521, 51.997 48.492 L 50.102 42.984 55.288 39.492 L 60.473 36 54.288 36 L 48.102 36 46.368 30.500 C 45.415 27.475, 44.349 25, 44 25 C 43.651 25, 42.585 27.475, 41.632 30.500 M 69.200 45.200 C 67.505 46.895, 67.505 85.105, 69.200 86.800 C 70.855 88.455, 93.145 88.455, 94.800 86.800 C 96.495 85.105, 96.495 46.895, 94.800 45.200 C 93.145 43.545, 70.855 43.545, 69.200 45.200 M 72 66 L 72 80 82 80 L 92 80 92 66 L 92 52 82 52 L 72 52 72 66" stroke="none" fill-rule="evenodd"/></svg>