<svg xmlns="http://www.w3.org/2000/svg" width="20" height="15" viewBox="0 0 48 48" version="1.1"><path d="M 17.211 5.071 C 12.446 6.529, 6.326 13.076, 4.950 18.187 C 2.556 27.077, 6.113 36.421, 13.683 41.127 C 19.355 44.653, 29.121 44.509, 34.700 40.817 C 40.942 36.686, 43.500 31.798, 43.500 24 C 43.500 16.302, 40.947 11.317, 34.985 7.372 C 30.696 4.533, 22.454 3.466, 17.211 5.071 M 18.455 12.455 C 17.105 13.805, 16 15.605, 16 16.455 C 16 18.674, 19.294 18.360, 20.768 16 C 22.167 13.759, 24.985 13.385, 26.800 15.200 C 28.688 17.088, 28.233 18.970, 25 22.653 C 21.485 26.656, 21.030 30, 24 30 C 25.100 30, 26 29.387, 26 28.638 C 26 27.888, 27.350 25.576, 29 23.500 C 32.642 18.917, 32.800 15.709, 29.545 12.455 C 26.298 9.207, 21.702 9.207, 18.455 12.455 M 22 36 C 22 37.333, 22.667 38, 24 38 C 25.333 38, 26 37.333, 26 36 C 26 34.667, 25.333 34, 24 34 C 22.667 34, 22 34.667, 22 36" stroke="none" fill-rule="evenodd"/></svg>