<svg xmlns="http://www.w3.org/2000/svg" width="24" height="24" viewBox="0 0 96 96" version="1.1"><path d="M 40 16.392 C 40 20.324, 39.719 20.854, 37.311 21.458 C 29.975 23.299, 25.472 29.617, 26.293 36.916 C 27.030 43.464, 32.154 47.800, 43.384 51.377 C 53.751 54.679, 56.333 56.577, 56.333 60.892 C 56.333 65.575, 54.015 67.299, 47.037 67.804 C 40.311 68.290, 36.745 66.730, 34.794 62.447 C 33.859 60.396, 32.974 60, 29.320 60 C 25.075 60, 24.979 60.071, 25.612 62.750 C 26.921 68.283, 34.208 75, 38.901 75 C 39.537 75, 40 76.897, 40 79.500 L 40 84 46 84 L 52 84 52 79.625 C 52 75.569, 52.218 75.206, 54.984 74.653 C 56.625 74.325, 59.594 72.566, 61.582 70.744 C 66.097 66.607, 67.221 60.375, 64.491 54.622 C 62.148 49.685, 58.198 47.088, 47.591 43.511 C 41.429 41.433, 38.098 39.725, 36.844 38 C 33.124 32.883, 37.705 28, 46.228 28 C 51.280 28, 54.515 29.931, 55.405 33.477 C 55.967 35.716, 56.555 36, 60.627 36 C 65.132 36, 65.204 35.949, 64.539 33.250 C 63.309 28.259, 60.510 24.638, 56.272 22.554 C 52.361 20.632, 52.090 20.228, 52.047 16.250 L 52 12 46 12 L 40 12 40 16.392" stroke="none" fill-rule="evenodd"/></svg>