<svg xmlns="http://www.w3.org/2000/svg" width="24" height="24" viewBox="0 0 72 72" version="1.1"><path d="M 29.873 13.684 C 28.428 14.580, 26.515 16.550, 25.623 18.061 C 24.730 19.572, 24 22.245, 24 24 C 24 25.755, 24.736 28.437, 25.636 29.960 C 26.535 31.483, 28.517 33.465, 30.040 34.364 C 31.563 35.264, 34.245 36, 36 36 C 37.755 36, 40.437 35.264, 41.960 34.364 C 43.483 33.465, 45.465 31.483, 46.364 29.960 C 47.264 28.437, 48 25.755, 48 24 C 48 22.245, 47.264 19.563, 46.364 18.040 C 45.465 16.517, 43.483 14.535, 41.960 13.636 C 40.437 12.736, 37.686 12.012, 35.846 12.027 C 34.006 12.041, 31.318 12.787, 29.873 13.684 M 26.718 43.028 C 24.637 43.553, 21.487 44.714, 19.718 45.608 C 17.948 46.502, 15.487 48.160, 14.250 49.291 C 12.581 50.818, 12 52.465, 12 55.674 L 12 60 36 60 L 60 60 60 55.674 C 60 52.474, 59.411 50.796, 57.738 49.223 C 56.493 48.054, 53.286 46.129, 50.610 44.946 C 47.443 43.545, 43.083 42.668, 38.122 42.433 C 33.930 42.235, 28.798 42.503, 26.718 43.028" stroke="none" fill-rule="evenodd"/></svg>