<svg xmlns="http://www.w3.org/2000/svg" width="24" height="24" viewBox="0 0 72 72" version="1.1"><path d="M 20.500 10.890 C 4.967 18.059, 5.415 39.844, 21.232 46.452 C 26.487 48.648, 31.925 48.372, 37.331 45.636 C 41.362 43.595, 42 43.496, 42 44.911 C 42 45.812, 45.374 49.902, 49.499 53.999 L 56.997 61.447 59.222 59.222 L 61.447 56.997 53.999 49.499 C 49.902 45.374, 45.812 42, 44.911 42 C 43.496 42, 43.595 41.362, 45.636 37.331 C 53.960 20.889, 37.149 3.206, 20.500 10.890 M 22.241 16.995 C 18.199 19.459, 15.007 24.536, 15.007 28.500 C 15.007 34.844, 22.156 41.993, 28.500 41.993 C 34.844 41.993, 41.993 34.844, 41.993 28.500 C 41.993 26.850, 41.098 24.033, 40.005 22.241 C 37.541 18.199, 32.464 15.007, 28.500 15.007 C 26.850 15.007, 24.033 15.902, 22.241 16.995" stroke="none" fill-rule="evenodd"/></svg>