<svg xmlns="http://www.w3.org/2000/svg" width="24" height="24" viewBox="0 0 72 72" version="1.1">
    <path d="M 27 17.917 C 27 22.821, 27.410 26.983, 27.911 27.167 C 28.411 27.350, 26.274 32.098, 23.161 37.718 L 17.500 47.935 11.750 47.968 L 6 48 6 57 L 6 66 15 66 L 24 66 24 63 L 24 60 36 60 L 48 60 48 63 L 48 66 57 66 L 66 66 66 57 L 66 48 60.250 47.968 L 54.500 47.935 48.839 37.718 C 45.726 32.098, 43.589 27.350, 44.089 27.167 C 44.590 26.983, 45 22.821, 45 17.917 L 45 9 36 9 L 27 9 27 17.917 M 33 18 L 33 21 36 21 L 39 21 39 18 L 39 15 36 15 L 33 15 33 18 M 29.750 38.363 L 24 48.693 24 51.347 L 24 54 36 54 L 48 54 48 51.347 L 48 48.693 42.250 38.363 C 39.087 32.682, 36.275 28.034, 36 28.034 C 35.725 28.034, 32.913 32.682, 29.750 38.363 M 12 57 L 12 60 15 60 L 18 60 18 57 L 18 54 15 54 L 12 54 12 57 M 54 57 L 54 60 57 60 L 60 60 60 57 L 60 54 57 54 L 54 54 54 57" stroke="none" fill-rule="evenodd"/>
</svg>