<svg xmlns="http://www.w3.org/2000/svg" width="15" height="15" viewBox="0 0 512 512" version="1.1"><path d="M 191.724 1.516 C 186.383 3.493, 179.506 8.661, 176.583 12.893 C 171.046 20.913, 170.594 23.131, 170.193 44.250 L 169.819 64 118.160 64.012 C 62.291 64.025, 61.463 64.093, 50.258 69.575 C 42.235 73.500, 31.979 83.609, 27.637 91.872 C 21.580 103.398, 20.867 108.573, 21.204 138.583 L 21.500 164.958 24.270 167.729 L 27.041 170.500 45.520 170.812 L 64 171.124 64 318.852 C 64 481.720, 63.628 471.893, 70.266 484.348 C 74.366 492.040, 83.960 501.634, 91.652 505.734 C 104.103 512.370, 94.400 512, 256 512 C 417.600 512, 407.897 512.370, 420.348 505.734 C 428.040 501.634, 437.634 492.040, 441.734 484.348 C 448.372 471.893, 448 481.720, 448 318.852 L 448 171.124 466.480 170.812 L 484.959 170.500 487.730 167.729 L 490.500 164.958 490.796 138.583 C 491.133 108.573, 490.420 103.398, 484.363 91.872 C 480.021 83.609, 469.765 73.500, 461.742 69.575 C 450.537 64.093, 449.709 64.025, 393.840 64.012 L 342.181 64 341.840 44.250 C 341.513 25.333, 341.386 24.262, 338.848 18.845 C 335.720 12.170, 329.722 6.027, 323.193 2.812 L 318.500 0.500 257 0.309 C 206.443 0.152, 194.828 0.366, 191.724 1.516 M 195.766 24.916 L 192.500 27.832 192.169 45.916 L 191.838 64 256 64 L 320.162 64 319.831 45.916 L 319.500 27.832 316.234 24.916 L 312.968 22 256 22 L 199.032 22 195.766 24.916 M 65.365 87.084 C 60.521 88.496, 52.911 94.046, 49.309 98.794 C 44.021 105.765, 43 111.005, 43 131.182 L 43 149 256.075 149 L 469.150 149 468.825 129.250 C 468.508 109.993, 468.431 109.359, 465.720 103.839 C 462.667 97.623, 457.415 92.328, 450.795 88.793 L 446.500 86.500 257.500 86.335 C 145.779 86.237, 67.218 86.544, 65.365 87.084 M 86 317.822 C 86 485.924, 85.095 470.301, 95.421 480.509 C 105.959 490.928, 90.445 490.011, 256.072 490.005 C 421.592 489.999, 406.257 490.900, 416.579 480.579 C 426.905 470.252, 426 485.893, 426 317.822 L 426 171 256 171 L 86 171 86 317.822 M 155.315 235.464 C 148.631 238.370, 148.940 233.473, 149.234 331.959 L 149.500 420.955 152.273 423.728 C 154.557 426.011, 155.919 426.500, 160 426.500 C 164.081 426.500, 165.443 426.011, 167.727 423.728 L 170.500 420.955 170.766 331.959 C 171.061 233.119, 171.401 238.319, 164.466 235.421 C 160.326 233.692, 159.379 233.696, 155.315 235.464 M 251.315 235.464 C 244.631 238.370, 244.940 233.473, 245.234 331.959 L 245.500 420.955 248.273 423.728 C 250.557 426.011, 251.919 426.500, 256 426.500 C 260.081 426.500, 261.443 426.011, 263.727 423.728 L 266.500 420.955 266.766 331.959 C 267.061 233.119, 267.401 238.319, 260.466 235.421 C 256.326 233.692, 255.379 233.696, 251.315 235.464 M 347.315 235.464 C 340.631 238.370, 340.940 233.473, 341.234 331.959 L 341.500 420.955 344.273 423.728 C 346.557 426.011, 347.919 426.500, 352 426.500 C 356.081 426.500, 357.443 426.011, 359.727 423.728 L 362.500 420.955 362.766 331.959 C 363.061 233.119, 363.401 238.319, 356.466 235.421 C 352.326 233.692, 351.379 233.696, 347.315 235.464" stroke="none" fill-rule="evenodd"/></svg>