<svg xmlns="http://www.w3.org/2000/svg" width="24" height="24" viewBox="0 0 576 576" version="1.1"><path d="M 144.422 118.932 C 141.113 119.733, 133.298 124.935, 129.298 129 C 123.907 134.479, 119.635 141.640, 117.988 147.960 C 117.051 151.557, 115.338 156.081, 114.182 158.014 C 113.026 159.947, 111.364 164.620, 110.488 168.397 C 109.612 172.175, 107.628 177.793, 106.081 180.883 C 104.533 183.972, 102.787 189.264, 102.202 192.643 C 101.617 196.022, 99.811 201.197, 98.189 204.143 C 96.568 207.089, 94.693 212.419, 94.023 215.988 C 93.354 219.556, 91.731 224.309, 90.417 226.551 C 89.104 228.792, 87.296 233.973, 86.399 238.063 C 85.503 242.153, 83.717 247.345, 82.431 249.599 C 81.145 251.854, 79.336 257.026, 78.411 261.093 C 77.485 265.161, 75.327 271.162, 73.614 274.429 L 70.500 280.370 70.196 380.435 C 70.030 435.471, 70.186 482.957, 70.545 485.961 C 71.140 490.944, 71.735 491.976, 77.351 497.760 C 84.966 505.602, 86.275 505.952, 108 505.952 C 129.725 505.952, 131.034 505.602, 138.649 497.760 C 144.355 491.884, 144.857 490.997, 145.532 485.592 C 145.932 482.386, 146.039 475.541, 145.769 470.382 C 145.453 464.327, 145.673 460.463, 146.389 459.483 C 147.373 458.138, 163.514 457.964, 288 457.964 C 412.486 457.964, 428.627 458.138, 429.611 459.483 C 430.327 460.463, 430.547 464.327, 430.231 470.382 C 429.961 475.541, 430.068 482.386, 430.468 485.592 C 431.143 490.997, 431.645 491.884, 437.351 497.760 C 444.966 505.602, 446.275 505.952, 468 505.952 C 489.725 505.952, 491.034 505.602, 498.649 497.760 C 504.265 491.976, 504.860 490.944, 505.455 485.961 C 505.814 482.957, 505.970 435.471, 505.804 380.435 L 505.500 280.370 502.386 274.429 C 500.673 271.162, 498.515 265.161, 497.589 261.093 C 496.664 257.026, 494.855 251.854, 493.569 249.599 C 492.283 247.345, 490.497 242.153, 489.601 238.063 C 488.704 233.973, 486.896 228.792, 485.583 226.551 C 484.269 224.309, 482.646 219.556, 481.977 215.988 C 481.307 212.419, 479.432 207.089, 477.811 204.143 C 476.189 201.197, 474.383 196.022, 473.798 192.643 C 473.213 189.264, 471.467 183.972, 469.919 180.883 C 468.372 177.793, 466.389 172.178, 465.514 168.405 C 464.639 164.632, 462.876 159.735, 461.597 157.522 C 460.317 155.310, 458.701 151.025, 458.005 148 C 456.343 140.773, 449.156 129.922, 443.507 126.109 C 441.094 124.481, 437.706 122.103, 435.977 120.825 L 432.833 118.500 290.166 118.344 C 211.700 118.258, 146.115 118.523, 144.422 118.932 M 157.913 161.282 C 155.507 163.130, 154.336 165.969, 153.601 171.737 C 153.235 174.617, 151.414 180.146, 149.556 184.023 C 147.698 187.900, 145.858 193.419, 145.468 196.286 C 145.078 199.154, 143.430 204.139, 141.807 207.363 C 140.185 210.588, 138.270 216.213, 137.552 219.863 C 136.834 223.514, 134.892 229.319, 133.237 232.764 C 131.581 236.209, 129.905 241.601, 129.512 244.747 C 128.983 248.985, 128.047 251.321, 125.899 253.768 C 122.741 257.364, 122.357 258.957, 124.200 260.800 C 125.945 262.545, 450.055 262.545, 451.800 260.800 C 453.643 258.957, 453.259 257.364, 450.101 253.768 C 447.947 251.315, 447.017 248.986, 446.483 244.708 C 446.087 241.541, 444.294 235.883, 442.498 232.135 C 440.701 228.387, 438.917 223.034, 438.533 220.238 C 438.148 217.443, 436.466 212.308, 434.793 208.828 C 433.121 205.348, 431.166 199.514, 430.448 195.863 C 429.730 192.213, 427.784 186.535, 426.123 183.245 C 424.463 179.954, 422.795 174.841, 422.418 171.881 C 421.665 165.975, 420.506 163.140, 418.087 161.282 C 415.776 159.508, 160.224 159.508, 157.913 161.282 M 150.720 315.070 C 148.641 315.571, 143.605 317.812, 139.528 320.049 C 132.614 323.844, 131.846 324.610, 128.083 331.466 C 120.684 344.948, 120.727 351.579, 128.300 364.873 C 132.361 372.001, 132.789 372.396, 141.215 376.789 C 148.764 380.725, 150.743 381.333, 156 381.333 C 161.257 381.333, 163.236 380.725, 170.785 376.789 C 179.211 372.396, 179.639 372.001, 183.700 364.873 C 191.318 351.501, 191.318 344.499, 183.700 331.127 C 179.636 323.993, 179.225 323.615, 171 319.425 C 161.822 314.750, 156.649 313.639, 150.720 315.070 M 414.720 315.070 C 412.641 315.571, 407.605 317.812, 403.528 320.049 C 396.614 323.844, 395.846 324.610, 392.083 331.466 C 384.684 344.948, 384.727 351.579, 392.300 364.873 C 396.361 372.001, 396.789 372.396, 405.215 376.789 C 412.764 380.725, 414.743 381.333, 420 381.333 C 425.257 381.333, 427.236 380.725, 434.785 376.789 C 443.211 372.396, 443.639 372.001, 447.700 364.873 C 450.010 360.818, 452.368 355.362, 452.939 352.750 C 454.358 346.269, 452.901 340.257, 447.700 331.127 C 443.636 323.993, 443.225 323.615, 435 319.425 C 425.822 314.750, 420.649 313.639, 414.720 315.070" stroke="none" fill-rule="evenodd"/></svg>