<svg xmlns="http://www.w3.org/2000/svg" width="24" height="24" viewBox="0 0 72 72" version="1.1"><path d="M 11 11 C 9.116 12.884, 9 14.333, 9 36 C 9 57.667, 9.116 59.116, 11 61 C 12.884 62.884, 14.333 63, 36 63 C 57.667 63, 59.116 62.884, 61 61 C 62.100 59.900, 63 57.875, 63 56.500 L 63 54 48.155 54 C 28.946 54, 30 55.056, 30 35.826 C 30 16.982, 28.953 18, 48.329 18 L 63 18 63 15.500 C 63 14.125, 62.100 12.100, 61 11 C 59.116 9.116, 57.667 9, 36 9 C 14.333 9, 12.884 9.116, 11 11 M 36 36 L 36 48 51 48 L 66 48 66 36 L 66 24 51 24 L 36 24 36 36 M 45 33 C 43.900 34.100, 43 35.450, 43 36 C 43 36.550, 43.900 37.900, 45 39 C 46.100 40.100, 47.450 41, 48 41 C 48.550 41, 49.900 40.100, 51 39 C 52.100 37.900, 53 36.550, 53 36 C 53 35.450, 52.100 34.100, 51 33 C 49.900 31.900, 48.550 31, 48 31 C 47.450 31, 46.100 31.900, 45 33" stroke="none" fill-rule="evenodd"/></svg>